<?xml version="1.0" standalone="no"?>
<!DOCTYPE svg PUBLIC "-//W3C//DTD SVG 20010904//EN"
 "http://www.w3.org/TR/2001/REC-SVG-20010904/DTD/svg10.dtd">
<svg version="1.0" xmlns="http://www.w3.org/2000/svg"
 width="500.000000pt" height="500.000000pt" viewBox="0 0 500.000000 500.000000"
 preserveAspectRatio="xMidYMid meet">
<metadata>
Created by potrace 1.14, written by Peter Selinger 2001-2017
</metadata>
<g transform="translate(0.000000,500.000000) scale(0.100000,-0.100000)"
fill="#000000" stroke="none">
<path d="M2484 3090 c-12 -5 -34 -25 -50 -45 l-27 -36 -2 -432 c0 -238 1 -438
3 -444 3 -9 28 -13 81 -13 l76 0 -2 198 -1 197 106 55 107 55 3 88 3 88 -110
-56 -110 -55 1 130 1 130 48 0 49 0 0 -60 c0 -33 4 -60 10 -60 5 0 41 16 78
35 l68 34 -1 54 c-2 61 -25 107 -65 131 -22 12 -53 16 -137 15 -59 0 -118 -4
-129 -9z"/>
<path d="M2935 3070 c-33 -17 -64 -35 -69 -40 -8 -8 -16 -140 -9 -140 2 0 36
17 77 37 l75 37 3 68 c2 44 -1 68 -8 68 -6 0 -37 -14 -69 -30z"/>
<path d="M3248 2993 l-67 -36 1 -83 c1 -46 0 -85 -3 -88 -2 -2 -23 -13 -46
-25 l-43 -21 0 -85 c0 -47 2 -85 5 -85 3 0 23 9 45 20 22 11 41 20 42 20 2 0
3 -89 3 -198 0 -195 0 -199 25 -235 32 -48 62 -57 180 -57 l97 0 0 75 -1 75
-73 0 -73 0 0 210 0 210 64 31 63 30 -1 79 c-1 43 -4 82 -8 85 -3 3 -31 -8
-62 -25 l-56 -31 0 85 c0 63 -3 86 -12 85 -7 0 -43 -17 -80 -36z"/>
<path d="M1069 2890 c-1 -8 -2 -185 -3 -393 l-1 -377 80 0 80 0 -2 315 c-2
173 0 315 5 316 45 6 102 3 103 -5 1 -6 2 -148 3 -316 l1 -305 78 -3 77 -3 0
319 0 318 57 -1 56 0 1 -315 1 -315 77 -3 76 -3 0 340 c0 295 -2 345 -17 373
-18 36 -56 66 -86 69 -70 6 -103 -2 -134 -31 -17 -17 -31 -35 -31 -41 0 -5
-17 8 -38 31 -39 40 -53 45 -121 41 -35 -2 -91 -29 -91 -43 0 -21 -19 -5 -22
19 -3 27 -4 27 -76 28 -57 0 -72 -3 -73 -15z"/>
<path d="M1970 2899 c-17 -4 -40 -15 -51 -25 -47 -43 -49 -56 -49 -366 0 -276
1 -295 20 -326 30 -49 72 -62 197 -62 89 0 114 3 140 20 61 37 64 50 65 363 1
314 -2 339 -56 375 -29 20 -48 24 -135 25 -55 1 -114 -1 -131 -4z m166 -386
l1 -243 -56 0 -56 0 1 228 c1 125 2 234 3 242 1 12 13 16 54 15 l52 0 1 -242z"/>
<path d="M3633 2897 c-40 -14 -72 -45 -84 -86 -7 -23 -9 -141 -7 -321 3 -255
5 -288 21 -312 33 -49 75 -60 208 -56 117 3 119 3 150 34 16 17 34 46 38 65 4
19 7 158 6 309 -1 304 -5 324 -66 355 -35 18 -220 26 -266 12z m175 -385 l2
-242 -57 0 -58 0 2 232 c1 128 2 238 2 243 1 6 24 10 54 10 l52 -1 3 -242z"/>
<path d="M2925 2852 l-71 -37 2 -335 c1 -184 2 -341 3 -347 1 -9 23 -13 76
-13 l75 0 0 385 c0 212 -3 385 -7 385 -5 -1 -40 -18 -78 -38z"/>
<path d="M1097 2053 c-3 -5 -10 -34 -16 -66 -6 -32 -13 -63 -17 -68 -4 -7 5
-9 22 -7 16 2 30 9 30 16 1 6 2 20 3 30 1 13 5 10 17 -10 8 -16 19 -28 23 -28
5 0 19 12 30 28 l21 27 -7 -33 c-5 -31 -4 -33 18 -30 20 2 25 12 36 63 7 33
12 66 13 73 0 26 -40 10 -72 -29 l-34 -41 -13 41 c-8 29 -17 41 -31 41 -10 0
-21 -3 -23 -7z"/>
<path d="M1390 2003 c-6 -32 -14 -66 -16 -75 -4 -14 1 -18 20 -18 26 0 31 8
41 75 4 22 9 48 12 58 3 13 -2 17 -21 17 -22 0 -26 -6 -36 -57z"/>
<path d="M1587 2021 c15 -39 15 -40 -16 -73 l-31 -33 27 -3 c19 -3 33 3 44 17
17 21 18 21 24 1 4 -14 15 -20 36 -20 l29 0 -19 39 -20 38 30 28 c16 16 29 32
29 37 0 15 -43 8 -63 -9 -18 -17 -19 -17 -28 0 -6 9 -21 17 -34 17 -23 0 -23
0 -8 -39z"/>
<path d="M2000 2055 c0 -2 7 -23 16 -45 9 -22 14 -54 12 -71 -4 -27 -2 -30 20
-27 18 2 28 11 33 30 4 15 21 44 38 65 17 21 31 41 31 45 0 17 -35 7 -61 -18
l-26 -25 -7 25 c-5 19 -13 26 -31 26 -14 0 -25 -2 -25 -5z"/>
<path d="M2277 2035 c-32 -33 -36 -83 -9 -108 22 -20 90 -22 113 -4 26 20 39
52 33 83 -7 39 -15 45 -66 51 -37 4 -47 1 -71 -22z m87 -31 c9 -25 -12 -56
-37 -52 -25 3 -34 32 -17 53 16 20 46 19 54 -1z"/>
<path d="M2544 2003 c-8 -68 1 -87 46 -91 48 -5 79 15 89 57 23 93 23 91 -4
91 -19 0 -26 -6 -31 -27 -13 -60 -21 -78 -39 -81 -16 -4 -17 2 -11 52 7 55 7
56 -18 56 -22 0 -25 -5 -32 -57z"/>
<path d="M2816 2018 c-4 -24 -9 -58 -12 -75 -6 -30 -4 -33 20 -33 19 0 26 5
26 20 0 11 4 20 9 20 5 0 13 -9 16 -20 4 -14 15 -20 36 -20 26 0 28 2 17 19
-10 16 -9 23 5 39 9 10 17 31 17 46 0 31 -29 46 -89 46 -37 0 -39 -1 -45 -42z
m84 -12 c0 -14 -24 -29 -33 -19 -3 3 -3 11 0 19 7 18 33 18 33 0z"/>
<path d="M3250 2038 c0 -13 3 -47 6 -75 6 -49 9 -53 33 -53 21 0 32 9 49 38
20 35 22 35 23 12 1 -14 1 -31 0 -37 -1 -8 10 -13 28 -13 26 0 34 7 60 56 45
83 48 96 20 92 -15 -2 -30 -17 -43 -40 -11 -21 -21 -37 -22 -35 -1 1 -4 18 -6
37 -6 54 -39 53 -71 -1 l-26 -42 -3 39 c-2 32 -7 40 -25 42 -18 3 -23 -1 -23
-20z"/>
<path d="M3611 2023 c-5 -21 -12 -55 -16 -75 -5 -35 -4 -38 18 -38 25 0 26 1
51 137 0 5 -9 9 -21 11 -18 3 -24 -4 -32 -35z"/>
<path d="M3796 2052 c-5 -8 -11 -36 -22 -104 -6 -36 -5 -38 20 -38 21 0 26 5
26 24 0 37 14 39 34 5 19 -32 57 -37 62 -9 2 8 5 24 7 35 20 92 19 95 -8 95
-17 0 -25 -5 -25 -17 0 -10 -4 -24 -9 -32 -6 -10 -13 -6 -27 18 -17 29 -47 41
-58 23z"/>
</g>
</svg>
